<svg xmlns="http://www.w3.org/2000/svg" viewBox="0 0 100 100" width="100" height="100">
  <!-- Background Circle with Gradient -->
  <defs>
    <linearGradient id="bgGradient" x1="0%" y1="0%" x2="100%" y2="100%">
      <stop offset="0%" stop-color="#f8fafc" />
      <stop offset="100%" stop-color="#eef2ff" />
    </linearGradient>
    <linearGradient id="gearGradient" x1="0%" y1="0%" x2="100%" y2="100%">
      <stop offset="0%" stop-color="#0066cc" />
      <stop offset="100%" stop-color="#0084ff" />
    </linearGradient>
  </defs>
  
  <circle cx="50" cy="50" r="48" fill="url(#bgGradient)" stroke="#0066cc" stroke-width="2" />
  
  <!-- Digital Binary Ring -->
  <g fill="#0084ff" opacity="0.2">
    <text x="16" y="25" font-family="monospace" font-size="3">10110</text>
    <text x="70" y="25" font-family="monospace" font-size="3">01001</text>
    <text x="12" y="75" font-family="monospace" font-size="3">11001</text>
    <text x="75" y="75" font-family="monospace" font-size="3">10110</text>
    <text x="20" y="50" font-family="monospace" font-size="3">01010</text>
    <text x="75" y="50" font-family="monospace" font-size="3">10101</text>
  </g>
  
  <!-- Complex Central Gear/Wheel -->
  <g>
    <!-- Main gear body -->
    <circle cx="50" cy="50" r="15" fill="url(#gearGradient)" />
    <circle cx="50" cy="50" r="12" fill="url(#gearGradient)" stroke="#0066cc" stroke-width="0.5" />
    <circle cx="50" cy="50" r="5" fill="#f8fafc" stroke="#0066cc" stroke-width="0.5" />
    
    <!-- Inner gear pattern -->
    <path d="M50,45 L47,50 L50,55 L53,50 Z" fill="#0066cc" stroke="#f8fafc" stroke-width="0.5" />
    
    <!-- Gear teeth - more complex shape -->
    <path d="M50,35 L48,30 L52,30 L50,35" fill="#0084ff" />
    <path d="M50,65 L48,70 L52,70 L50,65" fill="#0084ff" />
    <path d="M35,50 L30,48 L30,52 L35,50" fill="#0084ff" />
    <path d="M65,50 L70,48 L70,52 L65,50" fill="#0084ff" />
    
    <!-- Diagonal teeth with more complex shape -->
    <path d="M39,39 L35,35 L37,33 L41,37 Z" fill="#0084ff" />
    <path d="M61,39 L65,35 L63,33 L59,37 Z" fill="#0084ff" />
    <path d="M39,61 L35,65 L37,67 L41,63 Z" fill="#0084ff" />
    <path d="M61,61 L65,65 L63,67 L59,63 Z" fill="#0084ff" />
    
    <!-- Additional smaller teeth in between -->
    <path d="M43,34 L42,32 L44,32 L43,34" fill="#0084ff" />
    <path d="M57,34 L56,32 L58,32 L57,34" fill="#0084ff" />
    <path d="M43,66 L42,68 L44,68 L43,66" fill="#0084ff" />
    <path d="M57,66 L56,68 L58,68 L57,66" fill="#0084ff" />
    <path d="M34,43 L32,42 L32,44 L34,43" fill="#0084ff" />
    <path d="M66,43 L68,42 L68,44 L66,43" fill="#0084ff" />
    <path d="M34,57 L32,56 L32,58 L34,57" fill="#0084ff" />
    <path d="M66,57 L68,56 L68,58 L66,57" fill="#0084ff" />
  </g>
  
  <!-- Complex Circuit Pattern -->
  <g fill="none" stroke="#0084ff" stroke-width="1.5" stroke-linecap="round">
    <!-- Brain/Circuit Left Side -->
    <path d="M25,35 Q35,15 50,30" stroke-dasharray="1,0.5" />
    <path d="M25,65 Q35,85 50,70" stroke-dasharray="1,0.5" />
    <path d="M25,35 C25,45 28,55 25,65" />
    
    <!-- Connection nodes -->
    <circle cx="25" cy="35" r="2.5" fill="#0084ff" />
    <circle cx="25" cy="65" r="2.5" fill="#0084ff" />
    <circle cx="25" cy="50" r="2.5" fill="#0084ff" />
    
    <!-- Horizontal connections -->
    <path d="M25,50 L35,50" />
    <path d="M35,50 C36,46 36,41 33,38" />
    <circle cx="35" cy="50" r="1.75" fill="#0084ff" />
    <circle cx="33" cy="38" r="1.75" fill="#0084ff" />
    
    <!-- Brain/Circuit Right Side -->
    <path d="M75,35 Q65,15 50,30" stroke-dasharray="1,0.5" />
    <path d="M75,65 Q65,85 50,70" stroke-dasharray="1,0.5" />
    <path d="M75,35 C75,45 72,55 75,65" />
    
    <circle cx="75" cy="35" r="2.5" fill="#0084ff" />
    <circle cx="75" cy="65" r="2.5" fill="#0084ff" />
    <circle cx="75" cy="50" r="2.5" fill="#0084ff" />
    
    <path d="M75,50 L65,50" />
    <path d="M65,50 C64,46 64,41 67,38" />
    <circle cx="65" cy="50" r="1.75" fill="#0084ff" />
    <circle cx="67" cy="38" r="1.75" fill="#0084ff" />
    
    <!-- Additional Circuit Elements with more complex paths -->
    <path d="M40,25 C42,24 48,24 50,26 C52,24 58,24 60,25" />
    <path d="M35,38 C38,36 40,36 42,38" />
    <path d="M58,38 C60,36 62,36 65,38" />
    <path d="M25,58 C28,60 32,62 35,58" />
    <path d="M75,58 C72,60 68,62 65,58" />
    <path d="M40,75 C42,76 48,76 50,74 C52,76 58,76 60,75" />
    
    <!-- Data flow points -->
    <circle cx="40" cy="25" r="1.5" fill="#0084ff" />
    <circle cx="60" cy="25" r="1.5" fill="#0084ff" />
    <circle cx="35" cy="38" r="1.5" fill="#0084ff" />
    <circle cx="42" cy="38" r="1.5" fill="#0084ff" />
    <circle cx="58" cy="38" r="1.5" fill="#0084ff" />
    <circle cx="65" cy="38" r="1.5" fill="#0084ff" />
    <circle cx="35" cy="58" r="1.5" fill="#0084ff" />
    <circle cx="65" cy="58" r="1.5" fill="#0084ff" />
    <circle cx="40" cy="75" r="1.5" fill="#0084ff" />
    <circle cx="60" cy="75" r="1.5" fill="#0084ff" />
    
    <!-- Additional interconnections -->
    <path d="M25,42 C28,40 30,43 28,46" stroke-width="1" stroke-dasharray="2,1" />
    <path d="M75,42 C72,40 70,43 72,46" stroke-width="1" stroke-dasharray="2,1" />
    <path d="M42,65 C40,68 42,70 45,68" stroke-width="1" stroke-dasharray="2,1" />
    <path d="M58,65 C60,68 58,70 55,68" stroke-width="1" stroke-dasharray="2,1" />
    
    <!-- Pulse points (representing data transmission) -->
    <circle cx="28" cy="46" r="1" fill="#ffffff" stroke="#0084ff" stroke-width="0.5" />
    <circle cx="72" cy="46" r="1" fill="#ffffff" stroke="#0084ff" stroke-width="0.5" />
    <circle cx="45" cy="68" r="1" fill="#ffffff" stroke="#0084ff" stroke-width="0.5" />
    <circle cx="55" cy="68" r="1" fill="#ffffff" stroke="#0084ff" stroke-width="0.5" />
  </g>
  
  <!-- Subtle highlighting -->
  <circle cx="50" cy="50" r="40" fill="none" stroke="#0084ff" stroke-width="0.5" stroke-dasharray="1,2" opacity="0.3" />
</svg>