<svg xmlns="http://www.w3.org/2000/svg" viewBox="0 0 64 64" width="64" height="64">
  <g transform="translate(-268.000000, -358.000000)" fill="#007BFF">
    <!-- AI Brain Symbol -->
    <path d="M300,382.5c-2.5-1.5-4.5,0-6,1.5s-2.5,4-1.5,6c1.5,2.5,4.5,3,7,1.5s3.5-4.5,2-7C300.5,383.5,299,383,300,382.5z
              M295,390c-1.5-1-3-0.5-4.5,1s-1.5,3.5-0.5,5c1.5,2,4,2,6,0.5s2.5-4.5,1-6C296.5,389.5,295.5,390,295,390z
              M305,380c1.5-1,3.5-0.5,5,1s1.5,3.5,0.5,5c-1.5,2-4,2-6,0.5s-2.5-4.5-1-6C303.5,380.5,304.5,380,305,380z"/>
    
    <!-- Automation Gear -->
    <path d="M300,358a16,16 0 1 0 0,32 16,16 0 1 0 0-32zm0,6
            l-4,1 -1,4 -4-1 -1-4 4-1 1-4 4,1 1,4zm0,20
            l-4-1 -1-4 -4,1 -1,4 4,1 1,4 4-1 1-4z
            m12-10l-4,1 -1,4 -4-1 -1-4 4-1 1-4 4,1 1,4z
            m-24-10l-4,1 -1,4 -4-1 -1-4 4-1 1-4 4,1 1,4z"/>
    
    <!-- Circuit Lines -->
    <path d="M294,370h-4v4h4V370z M302,370h-4v4h4V370z
            M294,386h-4v4h4V386z M302,386h-4v4h4V386z
            M310,378v-4h-4v4H310z M310,394v-4h-4v4H310z
            M286,378v-4h-4v4H286z M286,394v-4h-4v4H286z"/>
  </g>
</svg>